<svg width="59" height="58" viewBox="0 0 59 58" fill="none" xmlns="http://www.w3.org/2000/svg">
<path d="M20.7048 1.90766C14.9097 3.91804 9.91205 7.73379 6.44586 12.7945C2.97966 17.8551 1.22767 23.8939 1.44721 30.0239C1.66676 36.1539 3.84627 42.0519 7.6656 46.8516C11.4849 51.6514 16.7428 55.0998 22.6669 56.6905C27.4696 57.9298 32.5015 57.9842 37.33 56.8491C41.7041 55.8666 45.7481 53.7649 49.0659 50.75C52.5191 47.5163 55.0256 43.4025 56.3159 38.8509C57.718 33.9012 57.9675 28.6961 57.0455 23.635H30.0755V34.8227H45.6947C45.3825 36.607 44.7136 38.31 43.7279 39.8298C42.7422 41.3496 41.46 42.6549 39.9581 43.6677C38.0511 44.9298 35.901 45.7787 33.6461 46.1599C31.3847 46.5804 29.0652 46.5804 26.8039 46.1599C24.5118 45.6865 22.3435 44.7405 20.4375 43.3822C17.375 41.2144 15.0756 38.1347 13.8672 34.5825C12.6387 30.9638 12.6387 27.0408 13.8672 23.422C14.7273 20.8855 16.1493 18.576 18.0269 16.6659C20.1755 14.44 22.8958 12.8488 25.8893 12.0671C28.8827 11.2853 32.0337 11.3432 34.9964 12.2344C37.311 12.9445 39.4275 14.1859 41.177 15.8594C42.9382 14.1073 44.6963 12.3507 46.4514 10.5895C47.3577 9.64251 48.3455 8.74079 49.2381 7.7711C46.5671 5.28579 43.432 3.35179 40.0125 2.07985C33.7852 -0.181289 26.9714 -0.242055 20.7048 1.90766Z" fill="white"/>
<path d="M20.7048 1.90767C26.9709 -0.243512 33.7847 -0.184345 40.0125 2.07532C43.4326 3.35591 46.5663 5.29922 49.2336 7.79376C48.3273 8.76345 47.3712 9.6697 46.4469 10.6122C44.6887 12.3673 42.9321 14.1164 41.177 15.8594C39.4275 14.1859 37.3109 12.9445 34.9964 12.2344C32.0347 11.3401 28.8838 11.2789 25.8896 12.0574C22.8953 12.8359 20.1734 14.4242 18.0223 16.6478C16.1447 18.5579 14.7228 20.8674 13.8626 23.4039L4.46936 16.1313C7.83158 9.46381 13.6531 4.36371 20.7048 1.90767Z" fill="#E33629"/>
<path d="M1.97715 23.3359C2.48165 20.8337 3.31987 18.4104 4.46933 16.1313L13.8626 23.422C12.6341 27.0408 12.6341 30.9638 13.8626 34.5825C10.733 36.9992 7.60194 39.4279 4.46933 41.8688C1.59267 36.1427 0.71534 29.6185 1.97715 23.3359Z" fill="#F8BD00"/>
<path d="M30.0755 23.6305H57.0455C57.9676 28.6916 57.718 33.8967 56.316 38.8464C55.0256 43.3979 52.5191 47.5117 49.066 50.7455C46.0346 48.3801 42.9896 46.033 39.9582 43.6677C41.4611 42.6539 42.7438 41.3472 43.7296 39.8258C44.7153 38.3043 45.3837 36.5995 45.6947 34.8136H30.0755C30.071 31.0889 30.0755 27.3597 30.0755 23.6305Z" fill="#587DBD"/>
<path d="M4.46484 41.8688C7.59745 39.4521 10.7285 37.0234 13.8581 34.5825C15.0689 38.1359 17.3717 41.2158 20.4375 43.3822C22.3495 44.7342 24.5224 45.6725 26.8175 46.1372C29.0788 46.5578 31.3983 46.5578 33.6597 46.1372C35.9146 45.7561 38.0647 44.9071 39.9717 43.645C43.0031 46.0103 46.0481 48.3575 49.0795 50.7228C45.7622 53.7394 41.7182 55.8426 37.3436 56.8264C32.5151 57.9615 27.4832 57.9071 22.6805 56.6678C18.8819 55.6536 15.3338 53.8657 12.2586 51.4161C9.00392 48.8316 6.34547 45.575 4.46484 41.8688Z" fill="#319F43"/>
</svg>
