<svg width="25" height="25" viewBox="0 0 25 25" fill="none" xmlns="http://www.w3.org/2000/svg">
<path d="M3.04261 19.6456L9.3289 13.3319C8.92781 12.8328 8.6099 12.2585 8.37515 11.609C8.1404 10.9595 8.02223 10.2681 8.02064 9.53473C8.01669 7.71806 8.64267 6.17937 9.8986 4.91863C11.1545 3.6579 12.6905 3.02522 14.5065 3.02061C16.3231 3.01665 17.8618 3.64264 19.1226 4.89857C20.3833 6.1545 21.016 7.69046 21.0206 9.50645C21.0246 11.3231 20.3986 12.8618 19.1426 14.1225C17.8867 15.3833 16.3508 16.016 14.5348 16.0206C13.8014 16.0222 13.1095 15.907 12.459 15.6751C11.8085 15.4432 11.2328 15.1278 10.7319 14.7288L4.44565 21.0425L3.04261 19.6456ZM10.0206 9.53038C10.0234 10.7804 10.4633 11.8421 11.3406 12.7155C12.2178 13.5889 13.2811 14.024 14.5304 14.0206C15.7804 14.0179 16.8421 13.5779 17.7155 12.7006C18.589 11.8234 19.024 10.7601 19.0206 9.5108C19.0179 8.26081 18.5779 7.19909 17.7007 6.32567C16.8234 5.45224 15.7602 5.01722 14.5108 5.0206C13.2608 5.02332 12.1991 5.4633 11.3257 6.34053C10.4523 7.21777 10.0172 8.28105 10.0206 9.53038Z" fill="white"/>
</svg>
