<svg width="47" height="47" viewBox="0 0 47 47" fill="none" xmlns="http://www.w3.org/2000/svg">
<circle cx="23.5" cy="23.5" r="23.1439" fill="#D9D9D9" stroke="black" stroke-width="0.712121"/>
<g clip-path="url(#clip0_61_1190)">
<path d="M32.4799 28.143C31.3356 26.9032 29.947 25.9137 28.4015 25.237C26.856 24.5603 25.1872 24.2109 23.5 24.2109C21.8129 24.2109 20.144 24.5603 18.5985 25.237C17.053 25.9137 15.6644 26.9032 14.5202 28.143C14.3435 28.3383 14.2447 28.5917 14.2424 28.8551V33.1278C14.2462 33.4086 14.3604 33.6767 14.5603 33.8739C14.7602 34.0712 15.0298 34.1818 15.3106 34.1817H31.6894C31.9727 34.1817 32.2444 34.0692 32.4447 33.8689C32.645 33.6686 32.7576 33.3969 32.7576 33.1136V28.8408C32.7519 28.5824 32.6533 28.3346 32.4799 28.143Z" fill="black"/>
<path d="M23.5 22.7879C26.253 22.7879 28.4848 20.5561 28.4848 17.8031C28.4848 15.05 26.253 12.8182 23.5 12.8182C20.7469 12.8182 18.5151 15.05 18.5151 17.8031C18.5151 20.5561 20.7469 22.7879 23.5 22.7879Z" fill="black"/>
</g>
<defs>
<clipPath id="clip0_61_1190">
<rect width="25.6364" height="25.6364" fill="white" transform="translate(10.6818 10.6818)"/>
</clipPath>
</defs>
</svg>
